<svg
   width="5.2916665mm"
   height="5.291667mm"
   viewBox="0 0 5.2916665 5.291667"
   version="1.1"
   id="svg1"
   xml:space="preserve"
   xmlns:inkscape="http://www.inkscape.org/namespaces/inkscape"
   xmlns:sodipodi="http://sodipodi.sourceforge.net/DTD/sodipodi-0.dtd"
   xmlns="http://www.w3.org/2000/svg"
   xmlns:svg="http://www.w3.org/2000/svg"><sodipodi:namedview
     id="namedview1"
     pagecolor="#505050"
     bordercolor="#ffffff"
     borderopacity="1"
     inkscape:showpageshadow="0"
     inkscape:pageopacity="0"
     inkscape:pagecheckerboard="1"
     inkscape:deskcolor="#505050"
     inkscape:document-units="mm"><inkscape:page
       x="0"
       y="3.5857726e-21"
       width="5.2916665"
       height="5.291667"
       id="page2"
       margin="0"
       bleed="0" /></sodipodi:namedview><defs
     id="defs1" /><g
     inkscape:label="Layer 1"
     inkscape:groupmode="layer"
     id="layer1"
     transform="translate(-89.958331,-174.09585)"><path
       fill="currentColor"
       d="m 92.604167,174.09583 c -1.4605,0 -2.645834,1.18534 -2.645834,2.64584 0,1.4605 1.185334,2.64583 2.645834,2.64583 1.4605,0 2.645833,-1.18533 2.645833,-2.64583 0,-1.4605 -1.185333,-2.64584 -2.645833,-2.64584 M 92.075,177.8 c -0.145521,0 -0.264583,-0.11906 -0.264583,-0.26458 v -1.5875 c 0,-0.14552 0.119062,-0.26459 0.264583,-0.26459 0.145521,0 0.264583,0.11907 0.264583,0.26459 v 1.5875 c 0,0.14552 -0.119062,0.26458 -0.264583,0.26458 m 1.058333,0 c -0.145521,0 -0.264583,-0.11906 -0.264583,-0.26458 v -1.5875 c 0,-0.14552 0.119062,-0.26459 0.264583,-0.26459 0.145521,0 0.264584,0.11907 0.264584,0.26459 v 1.5875 c 0,0.14552 -0.119063,0.26458 -0.264584,0.26458"
       id="path1"
       style="stroke-width:0.264583" /></g></svg>
