
<svg
   width="5.2916665mm"
   height="5.291667mm"
   viewBox="0 0 5.2916665 5.291667"
   version="1.1"
   id="svg1"
   xml:space="preserve"
   xmlns:inkscape="http://www.inkscape.org/namespaces/inkscape"
   xmlns:sodipodi="http://sodipodi.sourceforge.net/DTD/sodipodi-0.dtd"
   xmlns="http://www.w3.org/2000/svg"
   xmlns:svg="http://www.w3.org/2000/svg"><sodipodi:namedview
     id="namedview1"
     pagecolor="#505050"
     bordercolor="#ffffff"
     borderopacity="1"
     inkscape:showpageshadow="0"
     inkscape:pageopacity="0"
     inkscape:pagecheckerboard="1"
     inkscape:deskcolor="#505050"
     inkscape:document-units="mm"><inkscape:page
       x="0"
       y="1.7928863e-21"
       width="5.2916665"
       height="5.291667"
       id="page2"
       margin="0"
       bleed="0" /></sodipodi:namedview><defs
     id="defs1" /><g
     inkscape:label="Layer 1"
     inkscape:groupmode="layer"
     id="layer1"
     transform="translate(-89.693752,-175.94793)"><path
       fill="currentColor"
       d="m 91.969165,179.07 -0.568854,-0.56885 q -0.07276,-0.0728 -0.185208,-0.0728 -0.112448,0 -0.185208,0.0728 -0.07276,0.0728 -0.07276,0.1852 0,0.11245 0.07276,0.18521 l 0.754062,0.75406 q 0.07937,0.0794 0.185208,0.0794 0.105834,0 0.185209,-0.0794 l 1.494896,-1.49489 q 0.07276,-0.0728 0.07276,-0.18521 0,-0.11245 -0.07276,-0.18521 -0.07276,-0.0728 -0.185209,-0.0728 -0.112448,0 -0.185208,0.0728 z m 0.370417,2.16958 q -0.54901,0 -1.031875,-0.20849 -0.482865,-0.20849 -0.840052,-0.56541 -0.357188,-0.35693 -0.565415,-0.84006 -0.208227,-0.48312 -0.208491,-1.03187 -2.65e-4,-0.54875 0.208491,-1.03188 0.208757,-0.48312 0.565415,-0.84005 0.356658,-0.35692 0.840052,-0.56541 0.483394,-0.20849 1.031875,-0.20849 0.548481,0 1.031875,0.20849 0.483394,0.20849 0.840052,0.56541 0.356658,0.35693 0.565679,0.84005 0.209021,0.48313 0.208227,1.03188 -7.93e-4,0.54875 -0.208491,1.03187 -0.207698,0.48313 -0.565415,0.84006 -0.357717,0.35692 -0.840052,0.56568 -0.482335,0.20875 -1.031875,0.20822"
       id="path1"
       style="stroke-width:0.264583" /></g></svg>
