<?xml version="1.0" encoding="UTF-8" standalone="no"?>
<!-- Created with Inkscape (http://www.inkscape.org/) -->

<svg
   width="4.8168492mm"
   height="5.2941699mm"
   viewBox="0 0 4.8168492 5.2941699"
   version="1.1"
   id="svg1"
   xml:space="preserve"
   xmlns:inkscape="http://www.inkscape.org/namespaces/inkscape"
   xmlns:sodipodi="http://sodipodi.sourceforge.net/DTD/sodipodi-0.dtd"
   xmlns="http://www.w3.org/2000/svg"
   xmlns:svg="http://www.w3.org/2000/svg"><sodipodi:namedview
     id="namedview1"
     pagecolor="#505050"
     bordercolor="#ffffff"
     borderopacity="1"
     inkscape:showpageshadow="0"
     inkscape:pageopacity="0"
     inkscape:pagecheckerboard="1"
     inkscape:deskcolor="#505050"
     inkscape:document-units="mm"><inkscape:page
       x="0"
       y="0"
       width="4.8168492"
       height="5.2941699"
       id="page2"
       margin="0"
       bleed="0" /></sodipodi:namedview><defs
     id="defs1" /><g
     inkscape:label="Layer 1"
     inkscape:groupmode="layer"
     id="layer1"
     transform="translate(-100.40947,-140.01788)"><path
       fill="currentColor"
       d="m 104.84632,142.01883 a 2.4077083,2.4077083 0 0 0 -0.77708,-0.76095 c 0.25374,-0.0529 0.30586,-0.0958 0.33311,-0.13229 a 0.111125,0.111125 0 0 0 0.0228,-0.0847 c -0.023,-0.1569 -0.24077,-0.22067 -0.75195,-0.22067 -0.22489,0 -0.44741,0.0135 -0.57388,0.023 l 0.0489,-0.71279 a 0.08995833,0.08995833 0 0 0 -0.0225,-0.0661 0.08995833,0.08995833 0 0 0 -0.0632,-0.0302 l -0.34078,-0.0161 a 0.08995833,0.08995833 0 0 0 -0.0947,0.0852 l -0.0429,0.75115 a 10.054167,10.054167 0 0 0 -0.54875,-0.0161 c -0.61542,0 -0.73924,0.0794 -0.78158,0.1659 a 0.111125,0.111125 0 0 0 0,0.0995 c 0.0209,0.0423 0.0643,0.0897 0.30189,0.16113 a 2.4050625,2.4050625 0 0 0 -1.14511,2.04947 1.80975,1.80975 0 0 0 0.71437,1.50495 2.778125,2.778125 0 0 0 1.69254,0.49053 2.778125,2.778125 0 0 0 1.69333,-0.49186 1.80975,1.80975 0 0 0 0.71438,-1.50495 2.3997708,2.3997708 0 0 0 -0.37889,-1.29407 m -1.98807,-0.66892 a 0.08995833,0.08995833 0 0 0 -0.10584,0 9.7895833,9.7895833 0 0 1 -0.89085,0.57626 5.0270833,5.0270833 0 0 1 0.35216,-0.5633 0.08995833,0.08995833 0 0 0 -0.0577,-0.14075 5.2916667,5.2916667 0 0 1 -0.65617,-0.16669 2.6458333,2.6458333 0 0 1 0.53446,-0.0378 c 0.31512,0 0.62389,0.0225 0.62707,0.0228 a 0.08995833,0.08995833 0 0 0 0.0661,-0.022 0.09260417,0.09260417 0 0 0 0.0307,-0.0627 l 0.0439,-0.75248 0.15875,0.008 -0.0489,0.72522 a 0.08995833,0.08995833 0 0 0 0.0264,0.0709 0.08995833,0.08995833 0 0 0 0.0714,0.0251 c 0.003,0 0.33576,-0.0307 0.66278,-0.0307 a 2.0108333,2.0108333 0 0 1 0.50536,0.0439 5.0270833,5.0270833 0 0 1 -0.64082,0.11668 0.08995833,0.08995833 0 0 0 -0.063,0.14129 2.6458333,2.6458333 0 0 1 0.35083,0.635 5.3710417,5.3710417 0 0 1 -0.96678,-0.58843"
       id="path1"
       style="stroke-width:0.264583" /></g></svg>
